<svg xmlns="http://www.w3.org/2000/svg" width="400" height="340"><linearGradient id="grad1" x1="0%" y1="0%" x2="100%" y2="0%"><stop offset="0%" style="stop-color:#00FFFF;stop-opacity:1" /><stop offset="100%" style="stop-color:#00BFFF;stop-opacity:1" /></linearGradient><path fill="url(#grad1)" d="M272.1316368539196,252.60919856717263C267.25204506577114,261.2708304995404,254.89989989362223,266.47146499109704,245.872157065408,271.9697915942066C236.84441423719377,277.46811819731613,227.5407758817225,284.776535968928,217.96517988463427,285.5991581858299C208.38958388754602,286.42178040273177,197.90789475829047,280.6080085308997,188.41858108287852,276.9055248956181C178.92926740746657,273.2030412603365,167.33331770244948,270.4281521746222,161.02929783216263,263.38425637414025C154.72527796187578,256.3403605736583,152.85935718234342,244.4428050507576,150.59446186115747,234.64215009272655C148.32956653997152,224.8414951346955,145.96419490597987,214.48475378717174,147.4399259050469,204.5803266259538C148.91565690411392,194.67589946473586,153.12363567077804,183.46032079055732,159.44884785555953,175.21558712541886C165.77406004034103,166.9708534602804,175.62004974361892,158.73281103693787,185.3911990137359,155.111924635123C195.16234828385288,151.4910382333081,207.7016225429485,151.76309782514815,218.0757434762614,153.49026871452958C228.4498644095743,155.217439603911,240.04588600763253,159.0799671752312,247.63592461361327,165.4749499714116C255.225963219594,171.86993276759202,259.0303445820315,182.77265715351405,263.61597511214575,191.86016549161212C268.20160564226,200.9476738297102,273.7304308373365,209.87516115407325,275.1497077942988,220C276.56898475126115,230.12483884592675,277.01122864206803,243.94756663480487,272.1316368539196,252.60919856717263" stroke="none" stroke-width="3"/></svg>