<svg xmlns="http://www.w3.org/2000/svg" width="400" height="340"><linearGradient id="grad1" x1="0%" y1="0%" x2="100%" y2="0%"><stop offset="0%" style="stop-color:#00FFFF;stop-opacity:1" /><stop offset="100%" style="stop-color:#00BFFF;stop-opacity:1" /></linearGradient><path fill="url(#grad1)" d="M270.3642719991192,246.87590546177472C266.3572350329901,255.38812600171664,262.4987167614693,264.6311051872282,255.98662680071303,271.0733232396515C249.47453683995673,277.5155412920748,240.0222473488766,283.8983862128033,231.29173223458133,285.52921377631463C222.56121712028607,287.16004133982597,212.42144596394337,282.6531500436464,203.60353611494148,280.8582886207194C194.78562626593958,279.0634271977924,185.87829806915877,278.6838150187631,178.38427314057,274.7600452387528C170.89024821198123,270.83627545874253,164.900852082046,263.9914068618855,158.6393865434088,257.3156699406579C152.3779210047716,250.63993301943034,143.42391991749247,243.29884897467787,140.81547990874685,234.70562371138737C138.20703990000123,226.11239844809688,140.50335499310748,214.77909571188766,142.98874649093506,205.75631836091497C145.47413798876264,196.7335410099423,150.38695625784763,188.2888325262643,155.72782889571226,180.5689596055513C161.0687015335769,172.8490866848383,167.18984016988873,164.29408280988793,175.03398231812284,159.4370808366371C182.87812446635695,154.5800788633863,193.78855925813457,151.10924474347308,202.79268178511697,151.42694776604634C211.79680431209937,151.7446507886196,220.85217003443142,157.6946615950573,229.05871748001724,161.34329897207667C237.26526492560305,164.99193634909602,244.63806340032247,168.24888088267434,252.03196645863184,173.31877202816256C259.42586951694125,178.38866317365077,268.7559888067309,183.98244118303305,273.4221358298735,191.76264584500595C278.08828285301615,199.54285050697885,280.53849256928,210.81445673053855,280.0288485974876,220C279.5192046256952,229.18554326946145,274.37130896524826,238.3636849218328,270.3642719991192,246.87590546177472" stroke="none" stroke-width="3"/></svg>