<svg xmlns="http://www.w3.org/2000/svg" width="400" height="340"><linearGradient id="grad1" x1="0%" y1="0%" x2="100%" y2="0%"><stop offset="0%" style="stop-color:#FF69B4;stop-opacity:1" /><stop offset="100%" style="stop-color:#FF1493;stop-opacity:1" /></linearGradient><path fill="url(#grad1)" d="M272.4418967668521,247.8009236056769C267.8557286435243,255.67814673511458,259.71982098363026,261.9150883104536,252.55610138149297,267.26333877662603C245.39238177935567,272.61158924279846,237.77466498822133,276.13726881988805,229.4595791540283,279.8904264027116C221.14449331983525,283.6435839855352,211.0924909765608,290.7856917206726,202.6655863763347,289.7822842735673C194.23868177610856,288.778876826462,187.1964023887615,278.5832030559367,178.8981515526716,273.86998172008C170.59990071658171,269.1567603842233,158.40551599543616,268.2041519363849,152.87608135979525,261.50295625842693C147.34664672415434,254.80176058046894,146.44170603457388,242.75671953937842,145.72154373882609,233.66280765233205C145.0013814430783,224.56889576528567,147.03888987166349,215.89852824557184,148.5551075853085,206.93948493614877C150.0713252989535,197.9804416267257,150.48654786416122,187.9656404242679,154.81885002069617,179.90854779579365C159.15115217723113,171.85145516731941,166.5426841417089,163.243031596267,174.54892052451817,158.5969291653033C182.55515690732744,153.95082673433959,193.616627234168,152.05024537650328,202.85626831755178,152.03193321001135C212.09590940093557,152.0136210435194,221.56043626842245,155.19511379198167,229.9867670248208,158.48705616635172C238.41309778121916,161.77899854072177,245.97977079902842,166.32458849044474,253.41425285594198,171.78358745623174C260.84873491285555,177.24258642201875,270.1505164887158,183.2049812037791,274.5936593663021,191.24104996107383C279.0368022438884,199.27711871836854,280.4317372213681,210.57335439256616,280.07311012145976,220C279.7144830215514,229.42664560743384,277.0280648901799,239.92370047623922,272.4418967668521,247.8009236056769" stroke="none" stroke-width="3"/></svg>