<?xml version="1.0" encoding="UTF-8"?>
<svg xmlns="http://www.w3.org/2000/svg" xmlns:xlink="http://www.w3.org/1999/xlink" width="900px" height="765px" viewBox="0 0 900 765" version="1.1">
<defs>
<linearGradient id="linear0" gradientUnits="userSpaceOnUse" x1="0" y1="0" x2="1" y2="0" gradientTransform="matrix(315.734375,0,0,302.199219,314.332031,340.710937)">
<stop offset="0" style="stop-color:rgb(53.72549%,81.176471%,12.54902%);stop-opacity:1;"/>
<stop offset="1" style="stop-color:rgb(0%,74.117647%,22.352941%);stop-opacity:1;"/>
</linearGradient>
</defs>
<g id="surface1">
<path style=" stroke:none;fill-rule:nonzero;fill:url(#linear0);" d="M 608.320312 555.472656 C 599.304688 574.625 590.621094 595.421875 575.96875 609.914062 C 561.316406 624.410156 540.050781 638.769531 520.40625 642.441406 C 500.761719 646.109375 477.949219 635.96875 458.109375 631.929688 C 438.269531 627.894531 418.226562 627.039062 401.363281 618.210938 C 384.503906 609.382812 371.027344 593.980469 356.9375 578.960938 C 342.851562 563.941406 322.703125 547.421875 316.835938 528.085938 C 310.964844 508.753906 316.132812 483.253906 321.726562 462.953125 C 327.316406 442.652344 338.371094 423.648438 350.386719 406.28125 C 362.40625 388.910156 376.175781 369.660156 393.828125 358.734375 C 411.476562 347.804688 436.023438 339.996094 456.285156 340.710938 C 476.542969 341.425781 496.917969 354.8125 515.382812 363.023438 C 533.847656 371.230469 550.4375 378.558594 567.070312 389.96875 C 583.707031 401.375 604.699219 413.960938 615.199219 431.464844 C 625.699219 448.972656 631.210938 474.332031 630.066406 495 C 628.917969 515.667969 617.335938 536.316406 608.320312 555.472656 "/>
</g>
</svg>
